# xmcd
#
# Track frame offsets:
#	150
#	13458
#	25243
#	40813
#	58896
#	77031
#	87941
#	98243
#	110958
#	120801
#
# Disc length: 1782 seconds
#
# Revision: 4
# Processed by: cddbd v1.5.2PL0 Copyright (c) Steve Scherf et al.
# Submitted via: EZCDAudioConverter 1.2.3.1
#
DISCID=7f06f40a
DTITLE=Blues After Hours - All Alone Blues
DYEAR=2000
DGENRE=Blues
TTITLE0=Ray Charles - Alone In The City
TTITLE1=Memphis Slim - I'm So All Alone
TTITLE2=Billie Holiday - Willow Weep For Me
TTITLE3=John Lee Hooker - Wednesday Evening Blues
TTITLE4=Sonny Terry and Brownie McGhee - I'm A Stranger Here
TTITLE5=Billie Holiday - Lover Come Back To Me
TTITLE6=Ray Charles - Now She's Gone
TTITLE7=Ray Charles - You Always Miss The Water When The Well Runs Dry
TTITLE8=Leadbelly With Sonny Terry - How Long
TTITLE9=Ray Charles - Baby Won't You Please Come Home
EXTD=
EXTT0=
EXTT1=
EXTT2=
EXTT3=
EXTT4=
EXTT5=
EXTT6=
EXTT7=
EXTT8=
EXTT9=
PLAYORDER=
